<svg xmlns="http://www.w3.org/2000/svg" xmlns:xlink="http://www.w3.org/1999/xlink" version="1.1" width="34pt" height="28pt" viewBox="0 0 34 28">
<path transform="matrix(1,0,0,-1,0,28)" d="M21.492 14.973C21.596 14.877 21.702 14.602 21.84 14.431 18.501 12.277 11.185 7.582 7.096 4.562 8.627 3.053 10.542 1.891 12.744 1.244 19.877-.85 27.406 3.262 29.5 10.395 30.448 13.625 30.123 16.942 28.816 19.792 27.77 18.847 26.591 17.895 25.332 16.946H25.323C25.287 16.919 25.249 16.891 25.213 16.864 24.203 16.109 23.157 15.356 22.076 14.614 21.97 14.795 21.855 14.979 21.749 15.16 22.502 15.681 23.246 16.203 23.959 16.716 23.971 16.722 23.981 16.728 23.995 16.743 24.825 17.334 25.625 17.915 26.376 18.492 24.858 17.605 23.269 16.894 21.698 16.304 21.688 16.589 21.711 16.875 21.698 17.151 21.526 17.014 21.336 16.886 21.164 16.748 20.944 16.766 20.799 16.846 20.555 16.908 20.381 17.147 20.196 17.38 20.011 17.612 22.433 18.641 24.962 19.986 27.622 21.892 25.926 24.341 23.415 26.25 20.349 27.15 13.216 29.244 5.687 25.133 3.593 18 2.967 15.867 2.894 13.698 3.292 11.653 4.083 12.078 4.882 12.453 5.693 12.787L5.689 12.517 5.38 12.072C4.683 11.855 4.005 11.623 3.352 11.359 3.882 8.901 5.096 6.631 6.839 4.82 10.566 7.853 17.66 12.59 21.492 14.973" fill="#363e99"/>
<path transform="matrix(1,0,0,-1,0,28)" d="M9.2 14.042C9.169 14.032 9.136 14.019 9.101 14.01L9.2 13.841V14.042" fill="#363e99"/>
<path transform="matrix(1,0,0,-1,0,28)" d="M7.32 13.412C7.027 13.306 6.733 13.198 6.442 13.086V12.382C6.861 12.498 7.297 12.612 7.731 12.719L7.32 13.412" fill="#ce1041"/>
<path transform="matrix(1,0,0,-1,0,28)" d="M5.687 12.784C3.973 12.073 2.306 11.202 .68 10.024 2.069 10.892 3.655 11.533 5.374 12.069L5.685 12.518 5.687 12.784" fill="#ce1041"/>
<path transform="matrix(1,0,0,-1,0,28)" d="M20.01 17.608C20.196 17.38 20.375 17.144 20.554 16.904 20.798 16.842 20.943 16.762 21.163 16.744 21.335 16.881 21.526 17.01 21.698 17.147 21.706 16.873 21.688 16.585 21.698 16.301 23.274 16.894 24.855 17.606 26.374 18.488 25.625 17.915 24.824 17.33 23.994 16.738 23.981 16.728 23.971 16.722 23.958 16.711L23.959 16.716C23.959 16.716 23.959 16.716 23.959 16.716 23.24 16.2 22.497 15.682 21.744 15.162 21.855 14.979 21.966 14.797 22.07 14.611 23.151 15.353 24.203 16.109 25.212 16.859 25.249 16.891 25.286 16.919 25.322 16.946H25.328C29.854 20.354 33.352 23.821 33.543 26.931 28.63 22.065 24.158 19.373 20.01 17.608" fill="#ce1041"/>
<path transform="matrix(1,0,0,-1,0,28)" d="M12.19 13.722 12.236 13.877C12.033 14.19 11.835 14.492 11.658 14.783 11.083 14.614 10.513 14.447 9.951 14.274V13.236C10.688 13.399 11.435 13.559 12.19 13.722" fill="#ce1041"/>
<path transform="matrix(1,0,0,-1,0,28)" d="M21.486 14.97C21.59 14.874 21.698 14.603 21.835 14.432 17.438 11.595 6.154 4.356 4.403 2.323 4.71 3.912 16.199 11.687 21.486 14.97" fill="#ce1041"/>
<path transform="matrix(1,0,0,-1,0,28)" d="M12.033 14.894C12.144 14.697 12.257 14.505 12.366 14.318L12.582 15.056C12.398 15.002 12.213 14.949 12.033 14.894" fill="#ce1041"/>
<path transform="matrix(1,0,0,-1,0,28)" d="M17.777 15.036C17.755 15.118 17.747 15.205 17.744 15.29 17.761 16.082 18.551 16.92 19.58 16.974 19.762 16.986 19.913 16.989 20.044 16.988 19.921 17.146 19.794 17.305 19.661 17.457 18.207 16.852 16.796 16.356 15.415 15.918L15.886 14.551C16.513 14.704 17.147 14.865 17.777 15.036" fill="#ce1041"/>
<path transform="matrix(1,0,0,-1,0,28)" d="M20.81 15.971C20.757 16.047 20.703 16.119 20.645 16.192 19.933 16.354 19.334 16.137 19.333 15.846 19.339 15.723 19.404 15.623 19.508 15.546 19.941 15.682 20.377 15.821 20.81 15.971" fill="#ce1041"/>
<path transform="matrix(1,0,0,-1,0,28)" d="M24.279 16.946C24.172 16.87 24.065 16.788 23.958 16.711 23.828 16.843 23.716 16.963 23.725 16.946H24.279" fill="#ffffff"/>
<path transform="matrix(1,0,0,-1,0,28)" d="M18.27 12.908C18.129 12.814 18.007 12.725 17.867 12.63 17.848 12.87 17.88 13.108 17.867 13.352 17.967 13.181 18.066 13.033 18.27 12.908" fill="#ffffff"/>
<path transform="matrix(1,0,0,-1,0,28)" d="M15.127 10.079C15.266 10.169 15.399 10.257 15.534 10.349 15.972 9.986 16.394 9.665 16.657 9.494 17.244 9.096 16.982 8.685 16.813 8.585 16.631 8.479 16.152 8.573 15.938 8.992 15.876 9.132 15.514 9.623 15.18 10.022 15.162 10.04 15.144 10.06 15.127 10.079" fill="#ffffff"/>
<path transform="matrix(1,0,0,-1,0,28)" d="M20.206 13.386C20.79 13.763 21.323 14.108 21.78 14.405 22.043 14.117 22.204 13.756 22.217 13.32 22.239 12.47 21.107 11.873 20.17 11.811 19.241 11.746 18.999 11.817 18.495 11.984 18.304 11.843 18.052 11.702 17.867 11.55 17.853 11.662 17.875 11.777 17.867 11.893 18.242 12.134 18.632 12.37 18.985 12.6 19.643 12.411 20.323 12.446 20.444 12.809 20.53 13.103 20.415 13.268 20.206 13.386" fill="#ffffff"/>
<path transform="matrix(1,0,0,-1,0,28)" d="M21.832 14.438C22.301 13.671 22.702 12.93 23 12.266L22.53 11.869H23.179C23.394 11.337 23.531 10.848 23.576 10.474 23.769 8.832 24.012 8.029 23.323 7.152 22.76 6.445 21.805 6.322 19.537 7.129 20.646 6.241 23.745 5.584 24.047 8.178 24.173 9.248 23.934 10.543 23.44 11.869H24.417L23.917 12.433 24.1 13.105H25.741L25.948 12.45 25.442 11.869H28.682L27.935 12.543 26.425 16.946H25.321C24.988 16.692 24.647 16.439 24.301 16.184L23.205 12.454C22.699 13.653 22.006 14.869 21.209 15.989 21.389 15.899 21.527 15.783 21.698 15.63 21.691 16.119 21.71 16.647 21.698 17.148 21.526 17.011 21.33 16.882 21.159 16.745 20.939 16.763 20.794 16.843 20.549 16.905 19.876 17.807 19.151 18.629 18.435 19.318 15.447 22.146 12.566 23.901 10.608 22.759 8.648 21.609 10.32 17.207 11.212 15.547 11.457 15.072 11.828 14.485 12.241 13.876L11.825 12.46 11.15 11.869H13.037L12.537 12.457 12.72 13.105H12.737C13.57 11.899 14.438 10.802 14.706 10.531 14.818 10.61 14.935 10.688 15.046 10.764 14.841 10.941 14.65 11.124 14.478 11.306 14.245 11.534 13.722 12.196 13.117 13.105H14.366L14.569 12.479 14.063 11.869H16.722C16.833 11.944 16.943 12.036 17.054 12.106L16.557 12.571 15.045 16.946H12.351C12.335 16.988 12.963 16.337 12.963 16.337L12.37 14.316C11.41 15.902 10.448 17.835 10.154 19.422 9.586 22.469 11.256 23.526 14.222 22.093 16.053 21.208 18.249 19.231 20.039 16.989 19.908 16.99 19.758 16.988 19.576 16.976 18.547 16.921 17.757 16.084 17.74 15.292 17.724 14.499 18.716 13.982 19.3 13.736 19.345 13.713 19.396 13.694 19.446 13.674 20.099 14.093 20.705 14.482 21.256 14.822 21.12 14.904 20.976 14.97 20.825 15.033 20.031 15.331 19.345 15.421 19.329 15.848 19.33 16.138 19.929 16.356 20.649 16.191L21.492 14.973 21.832 14.438" fill="#ffffff"/>
<path transform="matrix(1,0,0,-1,0,28)" d="M5.185 16.946H7.401L9.2 13.843V16.355L8.73 16.946H10.462L9.951 16.388V12.582L10.511 11.869H8.218L6.442 14.907V12.379L6.982 11.869H5.211L5.685 12.518 5.687 16.33 5.185 16.946" fill="#ffffff"/>
<path transform="matrix(1,0,0,-1,0,28)" d="M12.95 13.784H14.036L13.467 15.56C13.467 15.56 12.978 13.8 12.95 13.784" fill="#363e99"/>
<path transform="matrix(1,0,0,-1,0,28)" d="M13.548 15.34C13.497 15.327 13.449 15.308 13.398 15.295 13.286 14.897 13.072 14.152 12.99 13.891 13.307 13.962 13.628 14.032 13.944 14.103L13.548 15.34" fill="#ce1041"/>
<path transform="matrix(1,0,0,-1,0,28)" d="M24.329 13.784H25.416L24.847 15.536C24.847 15.536 24.357 13.8 24.329 13.784" fill="#363e99"/>
<path transform="matrix(1,0,0,-1,0,28)" d="M16.458 26.74C16.544 26.715 16.593 26.626 16.567 26.539 16.542 26.453 16.453 26.404 16.367 26.43 16.28 26.455 16.231 26.544 16.257 26.631 16.282 26.717 16.372 26.766 16.458 26.74" fill="#ffffff"/>
<path transform="matrix(1,0,0,-1,0,28)" d="M12.62 7.293C12.732 7.26 12.797 7.143 12.764 7.03 12.73 6.918 12.613 6.854 12.501 6.887 12.389 6.92 12.325 7.037 12.357 7.149 12.391 7.262 12.508 7.326 12.62 7.293" fill="#ffffff"/>
<path transform="matrix(1,0,0,-1,0,28)" d="M8.626 7.363C8.738 7.33 8.803 7.213 8.769 7.101 8.737 6.988 8.619 6.924 8.507 6.957 8.395 6.99 8.331 7.107 8.364 7.22 8.397 7.332 8.514 7.396 8.626 7.363" fill="#ffffff"/>
<path transform="matrix(1,0,0,-1,0,28)" d="M11.728 9.144C11.807 9.122 11.853 9.038 11.828 8.956 11.806 8.878 11.722 8.832 11.644 8.855 11.561 8.879 11.516 8.963 11.539 9.04 11.563 9.123 11.647 9.168 11.728 9.144" fill="#ffffff"/>
<path transform="matrix(1,0,0,-1,0,28)" d="M10.272 7.79C10.332 7.772 10.368 7.705 10.35 7.641 10.332 7.58 10.265 7.543 10.204 7.561 10.14 7.58 10.103 7.647 10.12 7.707 10.14 7.772 10.206 7.809 10.272 7.79" fill="#ffffff"/>
<path transform="matrix(1,0,0,-1,0,28)" d="M11.206 6.165C11.279 6.144 11.322 6.065 11.299 5.987 11.277 5.914 11.199 5.871 11.126 5.893 11.048 5.916 11.006 5.994 11.027 6.067 11.05 6.145 11.128 6.188 11.206 6.165" fill="#ffffff"/>
<path transform="matrix(1,0,0,-1,0,28)" d="M12.775 5.887C12.831 5.871 12.865 5.81 12.849 5.753 12.832 5.697 12.771 5.664 12.714 5.68 12.658 5.696 12.625 5.758 12.641 5.814 12.657 5.87 12.719 5.903 12.775 5.887" fill="#ffffff"/>
<path transform="matrix(1,0,0,-1,0,28)" d="M22.353 9.374C22.418 9.355 22.46 9.277 22.44 9.208 22.421 9.143 22.343 9.101 22.278 9.119 22.209 9.14 22.166 9.218 22.185 9.282 22.206 9.352 22.284 9.394 22.353 9.374" fill="#ffffff"/>
<path transform="matrix(1,0,0,-1,0,28)" d="M22.38 7.818C22.448 7.798 22.497 7.709 22.476 7.636 22.457 7.571 22.367 7.522 22.298 7.542 22.221 7.565 22.172 7.654 22.19 7.719 22.212 7.793 22.302 7.841 22.38 7.818" fill="#ffffff"/>
<path transform="matrix(1,0,0,-1,0,28)" d="M23.404 9.169C23.486 9.144 23.544 9.039 23.518 8.948 23.493 8.866 23.388 8.808 23.306 8.832 23.215 8.858 23.156 8.965 23.181 9.047 23.207 9.137 23.314 9.195 23.404 9.169" fill="#ffffff"/>
<path transform="matrix(1,0,0,-1,0,28)" d="M23.393 10.199C23.496 10.169 23.569 10.035 23.535 9.918 23.505 9.815 23.371 9.741 23.267 9.772 23.15 9.806 23.077 9.94 23.107 10.043 23.142 10.16 23.276 10.233 23.393 10.199" fill="#ffffff"/>
<path transform="matrix(1,0,0,-1,0,28)" d="M25.379 10.24C25.452 10.218 25.504 10.123 25.48 10.041 25.458 9.968 25.363 9.916 25.29 9.938 25.208 9.962 25.156 10.057 25.178 10.13 25.202 10.212 25.297 10.264 25.379 10.24" fill="#ffffff"/>
<path transform="matrix(1,0,0,-1,0,28)" d="M26.563 9.175C26.636 9.153 26.687 9.059 26.663 8.977 26.642 8.903 26.547 8.851 26.474 8.873 26.392 8.897 26.34 8.992 26.361 9.065 26.385 9.147 26.481 9.199 26.563 9.175" fill="#ffffff"/>
<path transform="matrix(1,0,0,-1,0,28)" d="M25.294 8.018C25.367 7.997 25.419 7.902 25.396 7.82 25.374 7.746 25.279 7.694 25.205 7.716 25.123 7.74 25.071 7.835 25.093 7.908 25.117 7.99 25.212 8.042 25.294 8.018" fill="#ffffff"/>
<path transform="matrix(1,0,0,-1,0,28)" d="M26.397 7.319C26.467 7.299 26.516 7.209 26.494 7.136 26.474 7.067 26.384 7.019 26.315 7.039 26.241 7.06 26.192 7.149 26.213 7.219 26.234 7.292 26.324 7.341 26.397 7.319" fill="#ffffff"/>
<path transform="matrix(1,0,0,-1,0,28)" d="M27.263 9.485C27.345 9.461 27.403 9.355 27.378 9.269 27.353 9.186 27.247 9.128 27.165 9.152 27.079 9.178 27.022 9.284 27.045 9.366 27.07 9.452 27.177 9.51 27.263 9.485" fill="#ffffff"/>
<path transform="matrix(1,0,0,-1,0,28)" d="M25.076 10.84C25.124 10.826 25.154 10.77 25.141 10.723 25.127 10.675 25.071 10.644 25.023 10.658 24.976 10.672 24.945 10.728 24.959 10.775 24.974 10.823 25.029 10.853 25.076 10.84" fill="#ffffff"/>
<path transform="matrix(1,0,0,-1,0,28)" d="M22.935 4.935C23.034 4.906 23.104 4.778 23.074 4.674 23.045 4.575 22.917 4.505 22.817 4.534 22.714 4.565 22.644 4.692 22.673 4.792 22.703 4.896 22.832 4.966 22.935 4.935" fill="#ffffff"/>
<path transform="matrix(1,0,0,-1,0,28)" d="M11.649 11.639C11.71 11.621 11.747 11.554 11.728 11.489 11.71 11.429 11.643 11.393 11.582 11.41 11.518 11.429 11.481 11.496 11.499 11.557 11.518 11.621 11.585 11.658 11.649 11.639" fill="#ffffff"/>
<path transform="matrix(1,0,0,-1,0,28)" d="M8.041 7.685C8.119 7.662 8.164 7.578 8.141 7.496 8.117 7.418 8.034 7.373 7.956 7.395 7.874 7.42 7.828 7.503 7.851 7.581 7.875 7.663 7.959 7.709 8.041 7.685" fill="#ffffff"/>
<path transform="matrix(1,0,0,-1,0,28)" d="M8.206 8.485C8.283 8.463 8.329 8.379 8.305 8.297 8.282 8.219 8.198 8.173 8.121 8.196 8.039 8.22 7.993 8.304 8.016 8.382 8.04 8.464 8.123 8.51 8.206 8.485" fill="#ffffff"/>
<path transform="matrix(1,0,0,-1,0,28)" d="M6.767 8.312C6.822 8.296 6.856 8.234 6.84 8.178 6.823 8.122 6.762 8.088 6.706 8.105 6.649 8.122 6.616 8.183 6.633 8.239 6.649 8.295 6.71 8.329 6.767 8.312" fill="#ffffff"/>
<path transform="matrix(1,0,0,-1,0,28)" d="M15.598 25.295C15.684 25.27 15.732 25.181 15.707 25.094 15.682 25.008 15.593 24.959 15.506 24.984 15.42 25.01 15.371 25.099 15.397 25.185 15.422 25.272 15.511 25.32 15.598 25.295" fill="#ffffff"/>
<path transform="matrix(1,0,0,-1,0,28)" d="M17.185 25.045C17.236 25.03 17.264 24.979 17.25 24.933 17.234 24.88 17.185 24.853 17.133 24.868 17.085 24.882 17.058 24.933 17.072 24.984 17.087 25.032 17.137 25.059 17.185 25.045" fill="#ffffff"/>
<path transform="matrix(1,0,0,-1,0,28)" d="M17.246 23.451C17.298 23.436 17.325 23.386 17.311 23.338 17.297 23.286 17.246 23.259 17.194 23.274 17.147 23.288 17.119 23.338 17.135 23.39 17.148 23.437 17.199 23.465 17.246 23.451" fill="#ffffff"/>
<path transform="matrix(1,0,0,-1,0,28)" d="M13.876 24.127C13.928 24.111 13.955 24.061 13.941 24.014 13.926 23.962 13.875 23.934 13.823 23.949 13.776 23.963 13.749 24.014 13.764 24.065 13.778 24.113 13.828 24.141 13.876 24.127" fill="#ffffff"/>
<path transform="matrix(1,0,0,-1,0,28)" d="M14.169 23.895C14.221 23.88 14.248 23.83 14.234 23.782 14.219 23.73 14.169 23.703 14.117 23.718 14.069 23.732 14.042 23.782 14.057 23.834 14.071 23.882 14.121 23.909 14.169 23.895" fill="#ffffff"/>
<path transform="matrix(1,0,0,-1,0,28)" d="M11.581 21.503C11.633 21.488 11.66 21.437 11.647 21.39 11.632 21.338 11.581 21.31 11.529 21.326 11.481 21.34 11.454 21.39 11.47 21.442 11.483 21.489 11.534 21.517 11.581 21.503" fill="#ffffff"/>
<path transform="matrix(1,0,0,-1,0,28)" d="M14.581 23.732C14.649 23.712 14.684 23.65 14.665 23.59 14.646 23.521 14.584 23.487 14.515 23.507 14.454 23.525 14.421 23.587 14.441 23.656 14.459 23.716 14.52 23.75 14.581 23.732" fill="#ffffff"/>
<path transform="matrix(1,0,0,-1,0,28)" d="M14.057 23.257C14.126 23.237 14.159 23.176 14.142 23.115 14.121 23.046 14.06 23.013 13.991 23.033 13.931 23.051 13.897 23.112 13.917 23.181 13.935 23.241 13.996 23.275 14.057 23.257" fill="#ffffff"/>
<path transform="matrix(1,0,0,-1,0,28)" d="M16.004 24.14C16.086 24.115 16.126 24.043 16.104 23.97 16.08 23.888 16.008 23.848 15.926 23.872 15.852 23.894 15.812 23.966 15.836 24.048 15.858 24.121 15.931 24.161 16.004 24.14" fill="#ffffff"/>
<path transform="matrix(1,0,0,-1,0,28)" d="M12.015 20.902C12.097 20.878 12.137 20.806 12.115 20.732 12.091 20.65 12.018 20.61 11.936 20.635 11.862 20.656 11.823 20.728 11.847 20.81 11.868 20.884 11.941 20.924 12.015 20.902" fill="#ffffff"/>
<path transform="matrix(1,0,0,-1,0,28)" d="M19.047 22.538C19.146 22.509 19.194 22.42 19.167 22.325 19.138 22.226 19.048 22.177 18.949 22.206 18.854 22.233 18.805 22.323 18.834 22.422 18.862 22.518 18.951 22.566 19.047 22.538" fill="#ffffff"/>
<path transform="matrix(1,0,0,-1,0,28)" d="M18.859 25.417 18.977 26.437 19.066 25.417C19.095 25.403 19.12 25.377 19.136 25.35L19.857 25.283 19.157 25.184C19.142 25.132 19.106 25.091 19.066 25.065L18.971 23.972 18.861 25.069C18.817 25.096 18.787 25.138 18.773 25.184L18.061 25.238 18.79 25.338C18.805 25.372 18.83 25.397 18.859 25.417" fill="#ffffff"/>
<path transform="matrix(1,0,0,-1,0,28)" d="M12.766 21.446 12.881 22.097 12.972 21.446C13.001 21.434 13.025 21.407 13.041 21.379L13.555 21.308 13.063 21.213C13.048 21.162 13.012 21.121 12.972 21.095L12.876 20.227 12.767 21.099C12.723 21.126 12.692 21.168 12.679 21.214L12.227 21.257 12.695 21.368C12.71 21.401 12.736 21.427 12.766 21.446" fill="#ffffff"/>
<path transform="matrix(1,0,0,-1,0,28)" d="M26.696 10.397 26.812 11.048 26.902 10.397C26.932 10.384 26.957 10.358 26.972 10.33L27.465 10.237 26.993 10.165C26.978 10.113 26.942 10.071 26.902 10.046L26.798 9.387 26.697 10.05C26.653 10.077 26.623 10.118 26.609 10.165L26.003 10.226 26.626 10.319C26.641 10.352 26.667 10.378 26.696 10.397" fill="#ffffff"/>
<path transform="matrix(1,0,0,-1,0,28)" d="M25.48 7.392 25.561 7.78 25.688 7.392C25.716 7.378 25.741 7.352 25.757 7.324L26.097 7.206 25.778 7.159C25.763 7.107 25.728 7.065 25.687 7.04L25.592 6.637 25.481 7.044C25.439 7.071 25.408 7.112 25.394 7.159L24.998 7.2 25.411 7.313C25.425 7.347 25.451 7.372 25.48 7.392" fill="#ffffff"/>
<path transform="matrix(1,0,0,-1,0,28)" d="M11.537 4.675 11.598 5.295 11.744 4.675C11.773 4.662 11.798 4.636 11.813 4.608L12.35 4.535 11.835 4.442C11.82 4.39 11.784 4.349 11.744 4.323L11.639 3.693 11.539 4.327C11.495 4.354 11.465 4.395 11.45 4.442L10.935 4.505 11.468 4.597C11.482 4.63 11.509 4.655 11.537 4.675" fill="#ffffff"/>
<path transform="matrix(1,0,0,-1,0,28)" d="M15.832 6.204C15.923 6.178 15.978 6.077 15.951 5.986 15.925 5.896 15.824 5.841 15.733 5.868 15.643 5.895 15.588 5.995 15.614 6.085 15.641 6.176 15.741 6.231 15.832 6.204" fill="#ffffff"/>
<path transform="matrix(1,0,0,-1,0,28)" d="M18.398 7.102C18.463 7.083 18.506 7.005 18.485 6.935 18.467 6.871 18.389 6.828 18.323 6.847 18.255 6.867 18.212 6.946 18.231 7.011 18.251 7.08 18.329 7.122 18.398 7.102" fill="#ffffff"/>
</svg>
